<?xml version="1.0" encoding="UTF-8" standalone="no"?>
<!-- Created with Inkscape (http://www.inkscape.org/) -->
<svg xmlns:dc="http://purl.org/dc/elements/1.1/" xmlns:cc="http://creativecommons.org/ns#" xmlns:rdf="http://www.w3.org/1999/02/22-rdf-syntax-ns#" xmlns:svg="http://www.w3.org/2000/svg" xmlns="http://www.w3.org/2000/svg" xmlns:xlink="http://www.w3.org/1999/xlink" xmlns:sodipodi="http://sodipodi.sourceforge.net/DTD/sodipodi-0.dtd" xmlns:inkscape="http://www.inkscape.org/namespaces/inkscape" version="1.1" id="svg2" xml:space="preserve" width="258.39505" height="174.25067" viewBox="0 0 258.39505 174.25067" sodipodi:docname="BMBF_english.svg" inkscape:version="0.92.2 5c3e80d, 2017-08-06" inkscape:export-filename="/home/bone/opera/bmbf-logo/official/BMBF_gefördert vom_englisch.png" inkscape:export-xdpi="280" inkscape:export-ydpi="280"><metadata id="metadata8"><rdf:RDF><cc:Work rdf:about=""><dc:format>image/svg+xml</dc:format><dc:type rdf:resource="http://purl.org/dc/dcmitype/StillImage"/><dc:title/></cc:Work></rdf:RDF></metadata><defs id="defs6"/><sodipodi:namedview pagecolor="#ffffff" bordercolor="#666666" borderopacity="1" objecttolerance="10" gridtolerance="10" guidetolerance="10" inkscape:pageopacity="0" inkscape:pageshadow="2" inkscape:window-width="851" inkscape:window-height="1407" id="namedview4" showgrid="false" inkscape:snap-bbox="true" inkscape:bbox-paths="true" inkscape:bbox-nodes="false" inkscape:snap-bbox-edge-midpoints="true" fit-margin-top="0" fit-margin-left="0" fit-margin-right="0" fit-margin-bottom="0" inkscape:zoom="1.4975063" inkscape:cx="158.55269" inkscape:cy="103.32501" inkscape:window-x="1707" inkscape:window-y="16" inkscape:window-maximized="0" inkscape:current-layer="layer1" inkscape:snap-nodes="false"/><g id="g10" inkscape:groupmode="layer" inkscape:label="Bildwortmarke mir Fz" transform="matrix(1.3333333,0,0,-1.3333333,9.7951998,182.76133)"><g id="g4773"><path d="m 139.81,68.8891 v 4.6179 c 0,0.6067 -0.105,1.043 -0.307,1.3059 -0.203,0.2644 -0.511,0.3973 -0.931,0.3973 -0.356,0 -0.653,-0.0907 -0.891,-0.2696 -0.238,-0.1797 -0.426,-0.3535 -0.566,-0.5234 v -5.5281 h -1.203 v 10.5625 l 1.203,0.1355 v -4.259 h 0.029 c 0.041,0.0586 0.104,0.141 0.189,0.2395 0.083,0.0996 0.202,0.1992 0.348,0.2988 0.151,0.0996 0.33,0.1875 0.543,0.2617 0.213,0.075 0.465,0.1121 0.752,0.1121 0.625,0 1.121,-0.2039 1.486,-0.614 0.368,-0.4063 0.551,-1.0852 0.551,-2.0301 v -4.707 z m -5.67,5.782 c -0.031,0.0305 -0.078,0.0754 -0.142,0.1348 -0.067,0.0593 -0.147,0.1203 -0.245,0.1789 -0.097,0.0593 -0.218,0.1121 -0.359,0.1558 -0.137,0.0473 -0.297,0.0696 -0.475,0.0696 -0.259,0 -0.498,-0.0489 -0.722,-0.1426 -0.223,-0.0946 -0.416,-0.2473 -0.578,-0.4563 -0.166,-0.2097 -0.293,-0.48 -0.391,-0.814 -0.092,-0.3332 -0.137,-0.7395 -0.137,-1.218 0,-0.5281 0.041,-0.9707 0.123,-1.3301 0.086,-0.3574 0.203,-0.6433 0.354,-0.8586 0.144,-0.2144 0.328,-0.3679 0.541,-0.4636 0.211,-0.095 0.449,-0.1415 0.705,-0.1415 0.369,0 0.648,0.0653 0.844,0.1954 0.191,0.1289 0.328,0.2332 0.406,0.3132 l 0.492,-0.8371 c -0.051,-0.0613 -0.123,-0.1328 -0.215,-0.2168 -0.097,-0.0847 -0.218,-0.1687 -0.365,-0.2468 -0.148,-0.0789 -0.332,-0.1485 -0.543,-0.2024 -0.213,-0.0547 -0.459,-0.0808 -0.736,-0.0808 -0.399,0 -0.77,0.0644 -1.115,0.1945 -0.352,0.1289 -0.651,0.3426 -0.911,0.6414 -0.257,0.2988 -0.459,0.6875 -0.609,1.166 -0.15,0.4777 -0.223,1.0703 -0.223,1.7774 0,0.6875 0.088,1.2707 0.266,1.748 0.182,0.4785 0.414,0.8645 0.703,1.157 0.287,0.2953 0.608,0.5082 0.957,0.645 0.354,0.1335 0.707,0.2007 1.063,0.2007 0.269,0 0.505,-0.025 0.709,-0.0742 0.203,-0.0508 0.375,-0.1121 0.521,-0.1883 0.143,-0.075 0.264,-0.1535 0.356,-0.239 0.093,-0.0852 0.171,-0.1555 0.232,-0.2149 z m -4.986,0.3293 c -0.029,0.0191 -0.094,0.0437 -0.194,0.075 -0.097,0.0293 -0.232,0.0441 -0.4,0.0441 -0.379,0 -0.672,-0.1027 -0.887,-0.3066 -0.211,-0.2031 -0.363,-0.425 -0.453,-0.6641 v -5.2597 h -1.205 v 7.1726 h 1.102 v -0.9726 h 0.029 c 0.049,0.1406 0.115,0.2761 0.193,0.4113 0.08,0.1348 0.178,0.2547 0.297,0.3594 0.121,0.1043 0.262,0.1863 0.424,0.2461 0.164,0.0601 0.361,0.0894 0.588,0.0894 0.168,0 0.305,-0.0152 0.41,-0.0457 0.106,-0.0293 0.186,-0.0535 0.244,-0.073 z m -7.332,-5.2578 c 0.166,0 0.316,0.023 0.447,0.073 0.125,0.0489 0.236,0.1094 0.332,0.1789 0.094,0.0703 0.174,0.1473 0.236,0.2325 0.065,0.0839 0.123,0.157 0.172,0.2156 v 1.584 l -0.386,-0.0149 c -0.575,-0.0203 -1.012,-0.1199 -1.307,-0.2984 -0.301,-0.1797 -0.449,-0.4688 -0.449,-0.8672 0,-0.3676 0.084,-0.6445 0.252,-0.8293 0.17,-0.1848 0.404,-0.2742 0.703,-0.2742 z m -2.16,0.9695 c 0,0.418 0.08,0.7664 0.238,1.0449 0.16,0.2793 0.373,0.5047 0.641,0.6797 0.265,0.1758 0.582,0.2996 0.943,0.3742 0.363,0.075 0.746,0.1121 1.154,0.1121 h 0.371 v 0.6875 c 0,0.6075 -0.107,1.0262 -0.32,1.2547 -0.213,0.2297 -0.512,0.345 -0.897,0.345 -0.361,0 -0.658,-0.0782 -0.896,-0.2325 -0.236,-0.155 -0.426,-0.291 -0.566,-0.4109 l -0.506,0.8066 c 0.082,0.0797 0.181,0.17 0.306,0.2684 0.125,0.1008 0.278,0.1953 0.453,0.2852 0.18,0.0878 0.381,0.164 0.612,0.2226 0.226,0.0606 0.486,0.0906 0.773,0.0906 0.735,0 1.291,-0.2039 1.668,-0.614 0.375,-0.4063 0.565,-1.0645 0.565,-1.9715 V 70.384 c 0,-0.3098 0.009,-0.6102 0.029,-0.9043 0.021,-0.2938 0.041,-0.491 0.059,-0.5906 h -1.145 l -0.045,0.791 h -0.029 c -0.041,-0.0891 -0.1,-0.1906 -0.18,-0.3059 -0.08,-0.114 -0.178,-0.2187 -0.297,-0.3144 -0.119,-0.0946 -0.261,-0.1746 -0.431,-0.2461 -0.168,-0.0692 -0.366,-0.1035 -0.596,-0.1035 -0.268,0 -0.518,0.0488 -0.752,0.1496 -0.232,0.0996 -0.436,0.239 -0.607,0.4179 -0.174,0.1793 -0.309,0.3907 -0.405,0.6348 -0.092,0.2441 -0.14,0.5105 -0.14,0.7996 z m -3.452,4.541 c -0.427,0 -0.769,-0.1777 -1.029,-0.5371 -0.256,-0.3574 -0.404,-0.8758 -0.443,-1.5535 h 2.603 c 0.01,0.0508 0.018,0.1211 0.022,0.2168 0.006,0.0945 0.008,0.1973 0.008,0.3055 0,0.4992 -0.1,0.8847 -0.299,1.1582 -0.197,0.2734 -0.485,0.4101 -0.862,0.4101 z m 2.262,-1.6125 c 0,-0.3093 -0.01,-0.575 -0.029,-0.7996 -0.02,-0.2226 -0.041,-0.4211 -0.061,-0.5906 h -3.644 c 0.039,-0.8469 0.22,-1.4699 0.541,-1.8664 0.324,-0.3992 0.789,-0.5985 1.392,-0.5985 0.207,0 0.397,0.0235 0.567,0.075 0.166,0.0489 0.314,0.1086 0.439,0.179 0.123,0.0703 0.225,0.1382 0.313,0.2089 0.082,0.0704 0.144,0.1258 0.183,0.1649 l 0.448,-0.8524 c -0.051,-0.0492 -0.125,-0.1211 -0.225,-0.216 -0.096,-0.0945 -0.232,-0.1894 -0.398,-0.2851 -0.17,-0.0946 -0.379,-0.1746 -0.627,-0.2461 -0.25,-0.0692 -0.539,-0.1035 -0.877,-0.1035 -0.448,0 -0.852,0.0742 -1.215,0.2238 -0.362,0.1473 -0.668,0.3808 -0.924,0.6941 -0.25,0.3137 -0.449,0.7129 -0.584,1.1953 -0.139,0.4825 -0.211,1.0633 -0.211,1.7403 0,0.6394 0.074,1.1894 0.217,1.6523 0.14,0.4629 0.34,0.8438 0.586,1.1426 0.25,0.298 0.537,0.5207 0.865,0.6652 0.328,0.1446 0.68,0.2164 1.055,0.2164 0.685,0 1.222,-0.2164 1.607,-0.6492 0.389,-0.4355 0.582,-1.084 0.582,-1.9504 z m -6.711,0.9707 c -0.082,0.0903 -0.222,0.2114 -0.433,0.3664 -0.207,0.1543 -0.481,0.2325 -0.819,0.2325 -0.316,0 -0.558,-0.0762 -0.726,-0.2254 -0.17,-0.1485 -0.256,-0.3282 -0.256,-0.5371 0,-0.2688 0.078,-0.4907 0.232,-0.6653 0.153,-0.175 0.391,-0.3613 0.707,-0.5594 l 0.448,-0.2687 c 0.484,-0.291 0.867,-0.6008 1.144,-0.9348 0.277,-0.3347 0.414,-0.7644 0.414,-1.2918 0,-0.5691 -0.193,-1.0476 -0.584,-1.4355 -0.392,-0.3875 -0.955,-0.582 -1.689,-0.582 -0.289,0 -0.541,0.0293 -0.758,0.0886 -0.221,0.061 -0.41,0.1289 -0.574,0.209 -0.164,0.0805 -0.301,0.1684 -0.41,0.2617 -0.108,0.095 -0.2,0.1821 -0.268,0.2621 l 0.58,0.9559 c 0.061,-0.0605 0.131,-0.1277 0.217,-0.209 0.084,-0.0808 0.185,-0.157 0.306,-0.2324 0.118,-0.0731 0.25,-0.1367 0.401,-0.1856 0.146,-0.0515 0.32,-0.075 0.519,-0.075 0.358,0 0.629,0.079 0.819,0.2391 0.189,0.1594 0.283,0.3535 0.283,0.584 0,0.168 -0.022,0.3144 -0.066,0.4387 -0.045,0.125 -0.114,0.2371 -0.2,0.3355 -0.091,0.1008 -0.201,0.1965 -0.328,0.2844 -0.131,0.0898 -0.277,0.1902 -0.447,0.2988 l -0.447,0.2844 c -0.446,0.2891 -0.795,0.5926 -1.049,0.9121 -0.252,0.3191 -0.379,0.7266 -0.379,1.2254 0,0.2687 0.051,0.5156 0.156,0.7383 0.106,0.2246 0.252,0.4199 0.44,0.5832 0.187,0.1648 0.408,0.2937 0.662,0.3894 0.252,0.0938 0.523,0.1414 0.81,0.1414 0.28,0 0.514,-0.0269 0.713,-0.0828 0.199,-0.0547 0.371,-0.123 0.514,-0.209 0.142,-0.0847 0.262,-0.1699 0.359,-0.2539 0.092,-0.084 0.172,-0.1562 0.229,-0.216 z m -6.949,0.6418 c -0.426,0 -0.77,-0.1777 -1.027,-0.5371 -0.258,-0.3574 -0.405,-0.8758 -0.446,-1.5535 h 2.604 c 0.01,0.0508 0.017,0.1211 0.021,0.2168 0.006,0.0945 0.008,0.1973 0.008,0.3055 0,0.4992 -0.097,0.8847 -0.297,1.1582 -0.199,0.2734 -0.484,0.4101 -0.863,0.4101 z m 2.262,-1.6125 c 0,-0.3093 -0.01,-0.575 -0.03,-0.7996 -0.021,-0.2226 -0.039,-0.4211 -0.058,-0.5906 h -3.647 c 0.041,-0.8469 0.221,-1.4699 0.541,-1.8664 0.325,-0.3992 0.789,-0.5985 1.393,-0.5985 0.207,0 0.396,0.0235 0.566,0.075 0.168,0.0489 0.315,0.1086 0.44,0.179 0.123,0.0703 0.226,0.1382 0.312,0.2089 0.084,0.0704 0.145,0.1258 0.184,0.1649 l 0.449,-0.8524 c -0.051,-0.0492 -0.127,-0.1211 -0.224,-0.216 -0.098,-0.0945 -0.235,-0.1894 -0.401,-0.2851 -0.17,-0.0946 -0.379,-0.1746 -0.627,-0.2461 -0.248,-0.0692 -0.541,-0.1035 -0.877,-0.1035 -0.447,0 -0.849,0.0742 -1.215,0.2238 -0.359,0.1473 -0.668,0.3808 -0.92,0.6941 -0.253,0.3137 -0.451,0.7129 -0.589,1.1953 -0.137,0.4825 -0.207,1.0633 -0.207,1.7403 0,0.6394 0.074,1.1894 0.216,1.6523 0.141,0.4629 0.338,0.8438 0.586,1.1426 0.248,0.298 0.535,0.5207 0.864,0.6652 0.326,0.1446 0.679,0.2164 1.056,0.2164 0.686,0 1.221,-0.2164 1.608,-0.6492 0.386,-0.4355 0.58,-1.084 0.58,-1.9504 z m -7.6935,2.5996 c 0,0.6567 -0.1813,1.1418 -0.543,1.4563 -0.3625,0.3137 -0.9297,0.4707 -1.7043,0.4707 h -0.6254 v -4.0477 h 0.5652 c 0.7844,0 1.3657,0.1844 1.7418,0.5516 0.3782,0.3684 0.5657,0.8926 0.5657,1.5691 z m 0.5218,-7.3511 -2.1293,4.2285 C 97.6648,73.1074 97.5496,73.1 97.4316,73.0961 97.3113,73.0902 97.1934,73.0883 97.073,73.0883 h -0.5652 v -4.1992 h -1.2933 v 10.3093 h 1.9187 c 1.2406,0 2.1555,-0.2414 2.7457,-0.7254 0.5911,-0.4828 0.8861,-1.2035 0.8861,-2.1582 0,-0.6886 -0.142,-1.2753 -0.432,-1.7628 -0.288,-0.4872 -0.7295,-0.8614 -1.3252,-1.1211 l 2.4112,-4.5418 z M 87.418,69.7855 c 0.1879,0 0.3562,0.0235 0.505,0.075 0.1489,0.0489 0.2778,0.1125 0.3872,0.1856 0.1097,0.0754 0.2003,0.1516 0.275,0.2324 0.075,0.0813 0.1316,0.1485 0.1711,0.209 v 4.423 c -0.1094,0.0704 -0.236,0.129 -0.379,0.1786 -0.1437,0.0488 -0.3253,0.0742 -0.5437,0.0742 -0.2773,0 -0.5371,-0.0469 -0.7805,-0.1414 -0.2429,-0.0942 -0.4547,-0.2512 -0.6328,-0.4699 -0.1781,-0.2188 -0.3195,-0.504 -0.4238,-0.8516 -0.1039,-0.3484 -0.1567,-0.7774 -0.1567,-1.2859 0,-0.4985 0.0426,-0.9133 0.127,-1.2461 0.084,-0.3352 0.2012,-0.6036 0.3496,-0.8059 0.1484,-0.2059 0.3176,-0.3523 0.5059,-0.4434 0.189,-0.0886 0.3867,-0.1336 0.5957,-0.1336 z m -2.8278,2.584 c 0,0.7285 0.0946,1.336 0.2828,1.8243 0.1883,0.4882 0.4313,0.8816 0.729,1.1796 0.298,0.2989 0.6351,0.5106 1.0125,0.6344 0.3765,0.125 0.7531,0.1875 1.1304,0.1875 0.2278,0 0.4262,-0.0176 0.5949,-0.0535 0.1684,-0.0332 0.3071,-0.0762 0.4165,-0.127 v 3.4368 l 1.205,0.1355 v -10.698 h -1.1004 v 0.7617 h -0.0304 c -0.0297,-0.0598 -0.084,-0.1418 -0.1629,-0.2473 -0.0801,-0.1047 -0.1891,-0.2082 -0.3278,-0.3125 -0.139,-0.1055 -0.3125,-0.1941 -0.521,-0.2707 -0.2075,-0.0738 -0.4512,-0.1101 -0.729,-0.1101 -0.3371,0 -0.6574,0.0675 -0.9589,0.2011 -0.3032,0.1348 -0.5672,0.3489 -0.7965,0.6426 -0.2285,0.2949 -0.4086,0.6731 -0.5434,1.1359 -0.1332,0.4629 -0.2008,1.0235 -0.2008,1.6797 z m -2.6781,-3.4804 v 4.6179 c 0,0.6067 -0.1016,1.043 -0.3047,1.3059 -0.2035,0.2644 -0.5136,0.3973 -0.9297,0.3973 -0.3574,0 -0.655,-0.0907 -0.8929,-0.2696 -0.2395,-0.1797 -0.4274,-0.3535 -0.566,-0.5234 v -5.5281 h -1.2051 v 7.1726 h 1.1015 v -0.8086 h 0.0289 c 0.0297,0.0617 0.0942,0.1477 0.1934,0.2625 0.0996,0.1145 0.2285,0.2231 0.3871,0.3285 0.1594,0.1043 0.3477,0.1981 0.5664,0.2762 0.218,0.0801 0.4656,0.1199 0.7434,0.1199 0.3176,0 0.6051,-0.0476 0.8633,-0.1414 0.2578,-0.0957 0.4757,-0.2468 0.6543,-0.457 0.1789,-0.209 0.3171,-0.4805 0.4168,-0.8137 0.0988,-0.3336 0.1484,-0.7437 0.1484,-1.232 v -4.707 z m -8.0945,0.8535 c 0.1691,0 0.3176,0.023 0.4465,0.073 0.1289,0.0489 0.241,0.1094 0.3351,0.1789 0.0938,0.0703 0.1735,0.1473 0.2375,0.2325 0.0641,0.0839 0.1219,0.157 0.1711,0.2156 v 1.584 l -0.3867,-0.0149 c -0.575,-0.0203 -1.0117,-0.1199 -1.309,-0.2984 -0.298,-0.1797 -0.4465,-0.4688 -0.4465,-0.8672 0,-0.3676 0.084,-0.6445 0.2532,-0.8293 0.1679,-0.1848 0.4015,-0.2742 0.6988,-0.2742 z m -2.1571,0.9695 c 0,0.418 0.0793,0.7664 0.2383,1.0449 0.1582,0.2793 0.3715,0.5047 0.6399,0.6797 0.2676,0.1758 0.5824,0.2996 0.9449,0.3742 0.3609,0.075 0.7461,0.1121 1.1527,0.1121 h 0.3715 v 0.6875 c 0,0.6075 -0.107,1.0262 -0.3199,1.2547 -0.2129,0.2297 -0.5133,0.345 -0.8996,0.345 -0.357,0 -0.6551,-0.0782 -0.8938,-0.2325 -0.2379,-0.155 -0.4257,-0.291 -0.5648,-0.4109 l -0.5055,0.8066 c 0.0797,0.0797 0.1813,0.17 0.3047,0.2684 0.1238,0.1008 0.275,0.1953 0.4539,0.2852 0.1789,0.0878 0.3817,0.164 0.6102,0.2226 0.2285,0.0606 0.4855,0.0906 0.7734,0.0906 0.7344,0 1.2895,-0.2039 1.6668,-0.614 0.3766,-0.4063 0.5648,-1.0645 0.5648,-1.9715 V 70.384 c 0,-0.3098 0.0106,-0.6102 0.0305,-0.9043 0.0195,-0.2938 0.0403,-0.491 0.059,-0.5906 H 75.141 l -0.0437,0.791 h -0.0297 c -0.0395,-0.0891 -0.0988,-0.1906 -0.1785,-0.3059 -0.0793,-0.114 -0.1786,-0.2187 -0.2977,-0.3144 -0.1187,-0.0946 -0.2633,-0.1746 -0.4312,-0.2461 -0.1684,-0.0692 -0.3672,-0.1035 -0.5957,-0.1035 -0.2676,0 -0.5184,0.0488 -0.7516,0.1496 -0.2324,0.0996 -0.4356,0.239 -0.6098,0.4179 -0.1726,0.1793 -0.3078,0.3907 -0.4019,0.6348 -0.0938,0.2441 -0.1407,0.5105 -0.1407,0.7996 z m 64.8015,13.2434 v 4.6164 c 0,0.6074 -0.103,1.0433 -0.304,1.3078 -0.203,0.2633 -0.514,0.3949 -0.932,0.3949 -0.357,0 -0.656,-0.0894 -0.893,-0.2683 -0.24,-0.1793 -0.427,-0.3532 -0.568,-0.5231 v -5.5277 h -1.203 v 7.1711 h 1.104 v -0.8067 h 0.029 c 0.029,0.0602 0.092,0.1473 0.191,0.2617 0.1,0.1145 0.227,0.2239 0.387,0.3282 0.158,0.1047 0.348,0.1968 0.568,0.2769 0.217,0.0797 0.465,0.1196 0.742,0.1196 0.319,0 0.606,-0.0485 0.864,-0.1426 0.258,-0.0942 0.474,-0.2465 0.654,-0.4555 0.18,-0.2086 0.316,-0.4805 0.418,-0.8141 0.098,-0.3343 0.148,-0.7445 0.148,-1.2328 v -4.7058 z m -6.67,3.5851 c 0,0.9567 -0.136,1.6512 -0.414,2.0848 -0.277,0.4328 -0.664,0.6492 -1.16,0.6492 -0.494,0 -0.881,-0.2164 -1.154,-0.6492 -0.272,-0.4336 -0.41,-1.1281 -0.41,-2.0848 0,-0.9558 0.14,-1.6433 0.416,-2.0613 0.279,-0.4184 0.668,-0.6273 1.162,-0.6273 0.496,0 0.881,0.2089 1.154,0.6273 0.272,0.418 0.406,1.1055 0.406,2.0613 z m -4.386,0 c 0,0.6574 0.076,1.2258 0.232,1.7032 0.151,0.4785 0.36,0.8691 0.621,1.1722 0.264,0.3051 0.567,0.5289 0.908,0.6731 0.344,0.1445 0.709,0.2172 1.094,0.2172 0.397,0 0.766,-0.0727 1.104,-0.2172 0.336,-0.1442 0.629,-0.368 0.877,-0.6731 0.248,-0.3031 0.443,-0.6937 0.588,-1.1722 0.142,-0.4774 0.212,-1.0458 0.212,-1.7032 0,-0.6664 -0.072,-1.2394 -0.22,-1.7179 -0.151,-0.4778 -0.354,-0.8688 -0.617,-1.1731 -0.264,-0.3031 -0.569,-0.525 -0.918,-0.6641 -0.346,-0.1394 -0.711,-0.2097 -1.1,-0.2097 -0.395,0 -0.764,0.0703 -1.1,0.2097 -0.339,0.1391 -0.629,0.361 -0.879,0.6641 -0.246,0.3043 -0.445,0.6926 -0.587,1.1656 -0.143,0.4735 -0.215,1.0489 -0.215,1.7254 z m -2.114,5.3196 c -0.25,0 -0.447,0.0796 -0.595,0.239 -0.151,0.1594 -0.223,0.3684 -0.223,0.6278 0,0.2488 0.072,0.4531 0.223,0.6125 0.148,0.1593 0.345,0.2382 0.595,0.2382 0.237,0 0.434,-0.0789 0.581,-0.2382 0.148,-0.1594 0.222,-0.3637 0.222,-0.6125 0,-0.2594 -0.074,-0.4684 -0.222,-0.6278 -0.147,-0.1594 -0.344,-0.239 -0.581,-0.239 z m 0.596,-8.9047 h -1.205 v 7.1711 h 1.205 z m -2.572,6.1851 h -1.565 v -3.9738 c 0,-0.509 0.063,-0.8539 0.194,-1.0391 0.129,-0.1836 0.346,-0.2757 0.654,-0.2757 0.178,0 0.332,0.0246 0.461,0.0746 0.129,0.0492 0.223,0.0953 0.283,0.1343 l 0.164,-0.9714 c -0.05,-0.0399 -0.168,-0.1016 -0.357,-0.1864 -0.19,-0.0851 -0.44,-0.1273 -0.76,-0.1273 -0.613,0 -1.074,0.1722 -1.383,0.5152 -0.308,0.3442 -0.461,0.9145 -0.461,1.7117 v 4.1379 h -0.861 v 0.8071 l 0.861,0.1789 0.133,2.0027 h 1.072 v -2.0027 h 1.711 z m -7.25,-5.3336 c 0.168,0 0.316,0.0246 0.447,0.0746 0.129,0.0497 0.242,0.1102 0.334,0.1793 0.094,0.0696 0.174,0.1469 0.24,0.2317 0.063,0.084 0.118,0.1566 0.17,0.2168 v 1.5836 l -0.388,-0.0153 c -0.575,-0.0199 -1.012,-0.1195 -1.309,-0.2988 -0.299,-0.1785 -0.445,-0.468 -0.445,-0.866 0,-0.3688 0.084,-0.6457 0.254,-0.8297 0.166,-0.1844 0.402,-0.2762 0.697,-0.2762 z m -2.156,0.9707 c 0,0.4188 0.078,0.7668 0.236,1.0457 0.16,0.2793 0.373,0.5059 0.639,0.6801 0.269,0.1742 0.586,0.2988 0.947,0.3742 0.363,0.0739 0.748,0.1114 1.152,0.1114 h 0.373 v 0.6871 c 0,0.6074 -0.107,1.0261 -0.32,1.2547 -0.213,0.2296 -0.514,0.3437 -0.9,0.3437 -0.356,0 -0.655,-0.0766 -0.891,-0.2312 -0.24,-0.1543 -0.428,-0.2907 -0.568,-0.411 l -0.504,0.8074 c 0.078,0.079 0.181,0.1688 0.304,0.2684 0.123,0.0992 0.276,0.1945 0.454,0.2836 0.179,0.0898 0.382,0.1648 0.609,0.2242 0.23,0.0598 0.486,0.0903 0.773,0.0903 0.737,0 1.291,-0.2043 1.67,-0.6133 0.375,-0.4086 0.565,-1.0653 0.565,-1.9715 v -3.2723 c 0,-0.3078 0.009,-0.6101 0.029,-0.9043 0.022,-0.2937 0.041,-0.4906 0.061,-0.5894 h -1.147 l -0.045,0.7922 h -0.031 c -0.039,-0.0907 -0.098,-0.1918 -0.178,-0.3067 -0.078,-0.1144 -0.178,-0.2191 -0.299,-0.3137 -0.119,-0.0949 -0.261,-0.1769 -0.429,-0.2468 -0.17,-0.0703 -0.369,-0.1047 -0.596,-0.1047 -0.27,0 -0.518,0.05 -0.752,0.1492 -0.232,0.1 -0.437,0.2395 -0.611,0.4191 -0.172,0.1786 -0.307,0.3899 -0.399,0.6344 -0.097,0.2438 -0.142,0.5106 -0.142,0.7992 z m -1.356,3.9598 c -0.029,0.0293 -0.076,0.0742 -0.138,0.1344 -0.067,0.059 -0.147,0.1191 -0.247,0.1785 -0.101,0.0601 -0.218,0.1125 -0.359,0.1574 -0.137,0.0453 -0.297,0.0668 -0.475,0.0668 -0.257,0 -0.498,-0.0469 -0.722,-0.141 -0.223,-0.0953 -0.416,-0.2473 -0.578,-0.4566 -0.164,-0.2086 -0.293,-0.4801 -0.389,-0.8133 -0.094,-0.334 -0.143,-0.7399 -0.143,-1.2176 0,-0.5285 0.045,-0.9715 0.127,-1.3301 0.086,-0.359 0.203,-0.6449 0.35,-0.8594 0.148,-0.2136 0.33,-0.3683 0.545,-0.4621 0.211,-0.0957 0.449,-0.1425 0.705,-0.1425 0.365,0 0.648,0.064 0.84,0.1937 0.195,0.1297 0.334,0.2344 0.412,0.3145 l 0.488,-0.8375 c -0.047,-0.059 -0.121,-0.1321 -0.213,-0.2157 -0.095,-0.0851 -0.218,-0.1672 -0.365,-0.2468 -0.148,-0.0793 -0.332,-0.1473 -0.545,-0.2028 -0.211,-0.0547 -0.457,-0.0816 -0.736,-0.0816 -0.397,0 -0.768,0.0652 -1.113,0.1941 -0.348,0.1301 -0.653,0.3442 -0.911,0.643 -0.257,0.2984 -0.461,0.6871 -0.609,1.1648 -0.146,0.4778 -0.223,1.0715 -0.223,1.7778 0,0.6879 0.09,1.2703 0.268,1.7484 0.178,0.4781 0.412,0.8637 0.701,1.1582 0.287,0.2942 0.604,0.5074 0.957,0.6422 0.354,0.1348 0.707,0.202 1.063,0.202 0.269,0 0.504,-0.0258 0.709,-0.075 0.203,-0.05 0.377,-0.1118 0.521,-0.1872 0.145,-0.0746 0.264,-0.1543 0.356,-0.2386 0.095,-0.0844 0.171,-0.1575 0.232,-0.2164 z m -5.816,-5.782 h -1.102 v 0.8062 h -0.027 c -0.031,-0.059 -0.096,-0.1469 -0.195,-0.2605 -0.098,-0.1149 -0.225,-0.2246 -0.379,-0.3297 -0.155,-0.1039 -0.342,-0.1957 -0.559,-0.2762 -0.217,-0.0801 -0.461,-0.1195 -0.728,-0.1195 -0.319,0 -0.604,0.0472 -0.856,0.1418 -0.252,0.0949 -0.469,0.2469 -0.647,0.4558 -0.179,0.2098 -0.3165,0.4809 -0.4091,0.8149 -0.0957,0.3328 -0.1425,0.7441 -0.1425,1.2324 v 4.7059 H 100.9 v -4.6172 c 0,-0.5965 0.096,-1.0223 0.289,-1.2762 0.193,-0.2547 0.492,-0.3812 0.9,-0.3812 0.346,0 0.639,0.0867 0.877,0.2617 0.239,0.1738 0.428,0.3457 0.567,0.5156 v 5.4973 h 1.205 z m -9.3896,0.8965 c 0.1883,0 0.3567,0.0246 0.5055,0.0746 0.1484,0.0492 0.2785,0.1117 0.3879,0.1871 0.1078,0.0746 0.1992,0.1508 0.2738,0.2312 0.075,0.0801 0.1324,0.1489 0.1715,0.209 v 4.4223 c -0.1094,0.0695 -0.2355,0.1297 -0.3785,0.1793 -0.1445,0.05 -0.3246,0.0746 -0.5445,0.0746 -0.2758,0 -0.5375,-0.0473 -0.7805,-0.1418 -0.243,-0.0949 -0.4539,-0.2516 -0.6328,-0.4703 -0.1778,-0.22 -0.3195,-0.5035 -0.4235,-0.8516 -0.1035,-0.3492 -0.157,-0.7773 -0.157,-1.2848 0,-0.4984 0.0438,-0.914 0.1274,-1.2476 0.0847,-0.3344 0.2003,-0.6027 0.35,-0.8067 0.1484,-0.205 0.3168,-0.3515 0.5046,-0.4402 0.1895,-0.091 0.3872,-0.1351 0.5961,-0.1351 z m -2.8257,2.5843 c 0,0.727 0.0933,1.3348 0.2808,1.8223 0.1883,0.4887 0.4309,0.882 0.7285,1.1812 0.2985,0.2989 0.636,0.5102 1.0129,0.6344 0.377,0.1246 0.7535,0.1871 1.1309,0.1871 0.2285,0 0.4262,-0.0175 0.5945,-0.0527 0.1688,-0.0352 0.3074,-0.077 0.4168,-0.127 v 3.4368 l 1.2059,0.1351 v -10.698 h -1.1016 v 0.7621 H 96.7605 C 96.7324,84.657 96.6773,84.5758 96.5977,84.4711 96.5176,84.366 96.4098,84.2625 96.2703,84.157 c -0.1379,-0.1047 -0.3125,-0.1945 -0.5199,-0.2695 -0.209,-0.0742 -0.452,-0.1117 -0.7301,-0.1117 -0.3355,0 -0.6574,0.0672 -0.9582,0.2019 -0.3031,0.1344 -0.5676,0.3489 -0.7961,0.643 -0.2293,0.293 -0.4097,0.6719 -0.5437,1.1348 -0.134,0.4629 -0.1996,1.0234 -0.1996,1.6808 z m -1.4149,5.7977 h -3.6609 v -3.557 h 3.3629 v -1.0301 h -3.3629 v -3.616 h 4.0336 l -0.0746,-1.0754 h -5.2532 v 10.309 h 5.045 z m -9.2851,-3.0934 h -1.4575 v -6.1851 h -1.2054 v 6.1851 h -0.8637 v 0.8071 l 0.8637,0.1636 v 1.4348 c 0,0.3887 0.0543,0.7223 0.1629,1.0016 0.1093,0.2781 0.2531,0.5078 0.4328,0.6871 0.1781,0.1797 0.3855,0.309 0.6246,0.3886 0.2383,0.0789 0.4906,0.1196 0.7586,0.1196 0.2578,0 0.4761,-0.0352 0.6543,-0.1051 0.1793,-0.0691 0.2984,-0.1246 0.3574,-0.1641 L 81.8977,93.473 c -0.0598,0.0395 -0.1442,0.0825 -0.2532,0.1274 -0.109,0.0441 -0.2429,0.0668 -0.4011,0.0668 -0.2887,0 -0.5067,-0.0902 -0.6555,-0.2692 -0.1484,-0.1796 -0.2227,-0.5082 -0.2227,-0.9871 v -1.2843 h 1.6071 z m -5.684,-2.6 c 0,0.9567 -0.1387,1.6512 -0.4164,2.0848 -0.2782,0.4328 -0.6653,0.6492 -1.161,0.6492 -0.4953,0 -0.88,-0.2164 -1.1531,-0.6492 -0.2727,-0.4336 -0.4086,-1.1281 -0.4086,-2.0848 0,-0.9558 0.1391,-1.6433 0.4164,-2.0613 0.2774,-0.4184 0.6645,-0.6273 1.1602,-0.6273 0.4961,0 0.8804,0.2089 1.1535,0.6273 0.2726,0.418 0.409,1.1055 0.409,2.0613 z m -4.3887,0 c 0,0.6574 0.0766,1.2258 0.2305,1.7032 0.1535,0.4785 0.3617,0.8691 0.6246,1.1722 0.2633,0.3051 0.5648,0.5289 0.9078,0.6731 0.3422,0.1445 0.7062,0.2172 1.0934,0.2172 0.3964,0 0.7636,-0.0727 1.1007,-0.2172 0.3375,-0.1442 0.6305,-0.368 0.8782,-0.6731 0.2484,-0.3031 0.4445,-0.6937 0.5871,-1.1722 0.1441,-0.4774 0.2168,-1.0458 0.2168,-1.7032 0,-0.6664 -0.075,-1.2394 -0.2243,-1.7179 -0.148,-0.4778 -0.3543,-0.8688 -0.6168,-1.1731 -0.2628,-0.3031 -0.5679,-0.525 -0.9148,-0.6641 -0.3477,-0.1394 -0.7144,-0.2097 -1.1019,-0.2097 -0.3961,0 -0.7633,0.0703 -1.1,0.2097 -0.3379,0.1391 -0.6301,0.361 -0.8782,0.6641 -0.248,0.3043 -0.4441,0.6926 -0.5879,1.1656 -0.1433,0.4735 -0.2152,1.0489 -0.2152,1.7254 z m 85.498,18.6524 -2.233,-7.5895 c -0.258,-0.8765 -0.574,-1.5387 -0.945,-1.9875 -0.371,-0.4476 -0.91,-0.6719 -1.615,-0.6719 -0.147,0 -0.272,0.0176 -0.373,0.0516 -0.096,0.0359 -0.166,0.0625 -0.206,0.0832 v 1.0449 c 0.051,-0.0195 0.114,-0.0418 0.192,-0.0668 0.082,-0.0246 0.185,-0.0379 0.312,-0.0379 0.428,0 0.752,0.1348 0.975,0.4036 0.225,0.2695 0.414,0.682 0.574,1.2402 l 0.104,0.3734 -2.307,7.1567 h 1.295 l 1.115,-3.974 c 0.11,-0.409 0.211,-0.79 0.299,-1.143 0.09,-0.354 0.143,-0.67 0.164,-0.949 h 0.029 c 0.022,0.279 0.069,0.593 0.141,0.942 0.076,0.348 0.166,0.727 0.275,1.135 l 1.014,3.989 z m -5.952,-1.06 c -0.031,0.019 -0.095,0.044 -0.197,0.075 -0.096,0.029 -0.232,0.045 -0.398,0.045 -0.379,0 -0.672,-0.103 -0.887,-0.307 -0.213,-0.204 -0.365,-0.425 -0.451,-0.664 v -5.2609 h -1.207 v 7.1719 h 1.101 v -0.971 h 0.03 c 0.048,0.14 0.113,0.277 0.191,0.412 0.082,0.134 0.18,0.254 0.301,0.358 0.117,0.104 0.26,0.187 0.424,0.247 0.164,0.059 0.359,0.089 0.586,0.089 0.168,0 0.304,-0.015 0.41,-0.045 0.103,-0.029 0.185,-0.055 0.244,-0.074 z m -4.509,0.075 h -1.561 v -3.975 c 0,-0.508 0.063,-0.854 0.191,-1.038 0.131,-0.185 0.348,-0.2766 0.657,-0.2766 0.177,0 0.33,0.0246 0.461,0.0742 0.129,0.0504 0.22,0.0954 0.283,0.1344 l 0.162,-0.9715 c -0.051,-0.0391 -0.166,-0.1012 -0.357,-0.186 -0.188,-0.084 -0.44,-0.1269 -0.758,-0.1269 -0.615,0 -1.076,0.1715 -1.385,0.5148 -0.307,0.3442 -0.461,0.9136 -0.461,1.7116 v 4.139 h -0.863 v 0.806 l 0.863,0.179 0.135,2.002 h 1.072 v -2.002 h 1.709 z m -5.178,-0.463 c -0.078,0.089 -0.223,0.211 -0.432,0.365 -0.209,0.155 -0.482,0.231 -0.818,0.231 -0.318,0 -0.559,-0.074 -0.729,-0.223 -0.17,-0.15 -0.252,-0.329 -0.252,-0.538 0,-0.269 0.079,-0.491 0.231,-0.664 0.154,-0.176 0.389,-0.362 0.707,-0.561 l 0.447,-0.269 c 0.485,-0.288 0.865,-0.6 1.145,-0.934 0.277,-0.334 0.416,-0.765 0.416,-1.292 0,-0.568 -0.196,-1.0463 -0.588,-1.435 -0.391,-0.3887 -0.953,-0.5824 -1.69,-0.5824 -0.285,0 -0.539,0.0293 -0.757,0.0898 -0.221,0.0594 -0.409,0.1293 -0.575,0.2082 -0.164,0.0805 -0.298,0.1672 -0.408,0.2614 -0.109,0.0957 -0.201,0.1824 -0.267,0.2617 l 0.582,0.9573 c 0.058,-0.061 0.129,-0.13 0.212,-0.21 0.084,-0.08 0.188,-0.157 0.307,-0.231 0.117,-0.075 0.252,-0.137 0.401,-0.1874 0.148,-0.0496 0.322,-0.0742 0.523,-0.0742 0.355,0 0.627,0.0789 0.816,0.2386 0.188,0.16 0.282,0.354 0.282,0.583 0,0.169 -0.022,0.316 -0.065,0.441 -0.047,0.124 -0.113,0.236 -0.201,0.335 -0.09,0.1 -0.201,0.195 -0.326,0.284 -0.131,0.089 -0.279,0.19 -0.449,0.299 l -0.448,0.285 c -0.445,0.288 -0.793,0.592 -1.045,0.911 -0.253,0.319 -0.382,0.727 -0.382,1.226 0,0.268 0.052,0.515 0.158,0.739 0.103,0.223 0.25,0.418 0.437,0.583 0.19,0.164 0.409,0.293 0.662,0.388 0.254,0.094 0.524,0.142 0.813,0.142 0.277,0 0.514,-0.028 0.713,-0.082 0.199,-0.055 0.371,-0.124 0.513,-0.21 0.145,-0.084 0.262,-0.17 0.358,-0.254 0.096,-0.084 0.17,-0.156 0.23,-0.216 z m -5.52,3.182 c -0.25,0 -0.445,0.079 -0.595,0.239 -0.151,0.158 -0.223,0.368 -0.223,0.628 0,0.248 0.072,0.452 0.223,0.612 0.15,0.159 0.345,0.239 0.595,0.239 0.237,0 0.432,-0.08 0.578,-0.239 0.151,-0.16 0.225,-0.364 0.225,-0.612 0,-0.26 -0.074,-0.47 -0.225,-0.628 -0.146,-0.16 -0.341,-0.239 -0.578,-0.239 z m 0.594,-8.9059 h -1.203 v 7.1719 h 1.203 z m -4.211,0 v 4.6179 c 0,0.608 -0.101,1.043 -0.305,1.307 -0.203,0.264 -0.513,0.395 -0.931,0.395 -0.356,0 -0.654,-0.088 -0.891,-0.268 -0.24,-0.179 -0.428,-0.353 -0.566,-0.523 v -5.5289 h -1.203 v 7.1719 h 1.099 v -0.806 h 0.032 c 0.029,0.059 0.093,0.147 0.191,0.262 0.102,0.114 0.228,0.223 0.389,0.328 0.16,0.104 0.345,0.196 0.564,0.277 0.217,0.079 0.467,0.119 0.744,0.119 0.319,0 0.604,-0.048 0.863,-0.142 0.258,-0.095 0.477,-0.246 0.653,-0.455 0.18,-0.21 0.32,-0.482 0.42,-0.815 0.095,-0.333 0.148,-0.745 0.148,-1.233 v -4.7069 z m -6.336,8.9059 c -0.25,0 -0.447,0.079 -0.597,0.239 -0.149,0.158 -0.223,0.368 -0.223,0.628 0,0.248 0.074,0.452 0.223,0.612 0.15,0.159 0.347,0.239 0.597,0.239 0.237,0 0.428,-0.08 0.576,-0.239 0.151,-0.16 0.225,-0.364 0.225,-0.612 0,-0.26 -0.074,-0.47 -0.225,-0.628 -0.148,-0.16 -0.339,-0.239 -0.576,-0.239 z m 0.594,-8.9059 h -1.205 v 7.1719 h 1.205 z m -3.303,10.3099 V 99.0211 h -1.25 v 4.9019 c 0,0.308 0,0.612 0,0.911 0,0.299 0.002,0.578 0.006,0.837 0.006,0.259 0.014,0.488 0.024,0.687 0.009,0.199 0.019,0.353 0.029,0.463 h -0.045 c -0.049,-0.23 -0.15,-0.6 -0.305,-1.113 -0.154,-0.513 -0.33,-1.063 -0.527,-1.651 l -1.697,-5.0359 h -1.026 l -1.697,5.0359 c -0.197,0.588 -0.373,1.138 -0.527,1.651 -0.155,0.513 -0.256,0.883 -0.305,1.113 h -0.043 c 0.008,-0.119 0.018,-0.278 0.027,-0.478 0.01,-0.199 0.018,-0.426 0.024,-0.68 0.004,-0.254 0.006,-0.53 0.006,-0.829 0,-0.299 0,-0.603 0,-0.911 v -4.9019 h -1.252 v 10.3099 h 1.445 l 2.426,-7.112 c 0.109,-0.33 0.207,-0.65 0.289,-0.964 0.086,-0.313 0.137,-0.585 0.156,-0.814 h 0.029 c 0.012,0.229 0.059,0.498 0.143,0.807 0.084,0.308 0.18,0.627 0.289,0.956 l 2.426,7.127 z m -14.166,-8.636 c 0,-0.299 0.043,-0.508 0.125,-0.627 0.086,-0.12 0.231,-0.1797 0.44,-0.1797 0.111,0 0.201,0.0097 0.275,0.0301 0.074,0.0199 0.131,0.0394 0.172,0.0597 l 0.103,-0.8968 c -0.06,-0.0293 -0.168,-0.07 -0.328,-0.1192 -0.158,-0.0504 -0.371,-0.0746 -0.638,-0.0746 -0.405,0 -0.735,0.1238 -0.983,0.373 -0.248,0.2489 -0.371,0.6922 -0.371,1.3305 v 8.994 l 1.205,0.135 z m -5.386,-0.8223 c 0.167,0 0.318,0.0253 0.447,0.0753 0.129,0.0493 0.24,0.11 0.334,0.179 0.095,0.07 0.174,0.147 0.238,0.232 0.066,0.084 0.121,0.156 0.172,0.216 v 1.584 l -0.387,-0.014 c -0.576,-0.021 -1.012,-0.12 -1.308,-0.3 -0.299,-0.179 -0.45,-0.468 -0.45,-0.866 0,-0.368 0.084,-0.645 0.254,-0.83 0.17,-0.1838 0.403,-0.2763 0.7,-0.2763 z m -2.157,0.9723 c 0,0.418 0.078,0.766 0.239,1.044 0.158,0.28 0.371,0.508 0.638,0.681 0.27,0.175 0.582,0.3 0.944,0.374 0.361,0.075 0.748,0.112 1.154,0.112 h 0.373 v 0.687 c 0,0.608 -0.106,1.027 -0.32,1.255 -0.215,0.229 -0.514,0.343 -0.901,0.343 -0.357,0 -0.654,-0.076 -0.892,-0.231 -0.239,-0.154 -0.428,-0.291 -0.565,-0.411 l -0.508,0.808 c 0.08,0.079 0.182,0.168 0.305,0.269 0.125,0.099 0.275,0.194 0.455,0.283 0.18,0.09 0.381,0.164 0.61,0.224 0.228,0.06 0.486,0.09 0.773,0.09 0.734,0 1.291,-0.204 1.666,-0.613 0.379,-0.408 0.566,-1.065 0.566,-1.972 v -3.273 c 0,-0.308 0.01,-0.6095 0.032,-0.9025 0.019,-0.2949 0.039,-0.4918 0.058,-0.5914 h -1.144 l -0.047,0.7926 h -0.029 c -0.04,-0.0903 -0.098,-0.1914 -0.178,-0.3067 -0.082,-0.1148 -0.18,-0.2191 -0.299,-0.3132 -0.119,-0.095 -0.262,-0.1774 -0.432,-0.2469 -0.168,-0.0703 -0.367,-0.1043 -0.593,-0.1043 -0.268,0 -0.518,0.0496 -0.752,0.1492 -0.233,0.0996 -0.438,0.2395 -0.61,0.418 -0.174,0.1793 -0.306,0.3914 -0.402,0.6362 -0.094,0.243 -0.141,0.509 -0.141,0.799 z m -0.701,4.288 c -0.029,0.019 -0.094,0.044 -0.193,0.075 -0.098,0.029 -0.231,0.045 -0.401,0.045 -0.378,0 -0.6726,-0.103 -0.8863,-0.307 -0.2137,-0.204 -0.3648,-0.425 -0.4543,-0.664 V 99.0211 H 97.877 v 7.1719 h 1.1019 v -0.971 h 0.0289 c 0.0496,0.14 0.1152,0.277 0.1942,0.412 0.0789,0.134 0.1785,0.254 0.2984,0.358 0.1184,0.104 0.2598,0.187 0.4234,0.247 0.1642,0.059 0.3612,0.089 0.5872,0.089 0.17,0 0.305,-0.015 0.41,-0.045 0.106,-0.029 0.186,-0.055 0.245,-0.074 z m -7.008,0.254 c -0.4266,0 -0.7672,-0.179 -1.0266,-0.538 -0.2574,-0.359 -0.4066,-0.877 -0.4465,-1.554 h 2.6036 c 0.0097,0.05 0.0168,0.122 0.023,0.218 0.0051,0.093 0.0078,0.195 0.0078,0.305 0,0.498 -0.1004,0.884 -0.2976,1.158 -0.1989,0.274 -0.4864,0.411 -0.8637,0.411 z m 2.2613,-1.613 c 0,-0.31 -0.0101,-0.576 -0.0285,-0.8 -0.0195,-0.225 -0.0406,-0.421 -0.0602,-0.59 h -3.6457 c 0.0399,-0.847 0.2204,-1.47 0.5442,-1.869 0.3219,-0.398 0.7851,-0.5966 1.3906,-0.5966 0.2078,0 0.3969,0.0246 0.5648,0.0742 0.1692,0.0504 0.3161,0.1104 0.4391,0.1794 0.1246,0.069 0.2274,0.139 0.3125,0.21 0.0836,0.068 0.1465,0.124 0.1871,0.164 l 0.4453,-0.8519 c -0.0504,-0.0503 -0.1234,-0.1222 -0.223,-0.2168 -0.0992,-0.0949 -0.2336,-0.1894 -0.4027,-0.2835 -0.1684,-0.095 -0.3754,-0.1774 -0.6235,-0.2469 -0.2484,-0.0703 -0.541,-0.1043 -0.8781,-0.1043 -0.4469,0 -0.8508,0.0742 -1.2121,0.2242 -0.3629,0.1492 -0.6707,0.3809 -0.9238,0.6941 -0.2524,0.3141 -0.4485,0.7131 -0.5872,1.1951 -0.139,0.483 -0.2086,1.063 -0.2086,1.741 0,0.638 0.0715,1.189 0.2165,1.651 0.1437,0.464 0.3394,0.844 0.5871,1.144 0.248,0.298 0.5367,0.52 0.8629,0.663 0.3277,0.146 0.6796,0.218 1.0566,0.218 0.6855,0 1.2195,-0.218 1.6066,-0.65 0.3868,-0.433 0.5801,-1.083 0.5801,-1.949 z m -8.9719,-3.8556 c 0.1883,0 0.3575,0.0246 0.5051,0.0742 0.1492,0.0504 0.2781,0.1124 0.3875,0.1874 0.1098,0.074 0.2012,0.151 0.2758,0.231 0.0742,0.08 0.1309,0.149 0.1703,0.21 v 4.422 c -0.1098,0.07 -0.2351,0.13 -0.3789,0.179 -0.1437,0.05 -0.325,0.076 -0.5434,0.076 -0.2777,0 -0.5375,-0.048 -0.7808,-0.143 -0.243,-0.094 -0.4543,-0.251 -0.632,-0.47 -0.179,-0.22 -0.3207,-0.504 -0.4247,-0.852 -0.1039,-0.348 -0.1566,-0.777 -0.1566,-1.285 0,-0.498 0.0426,-0.914 0.127,-1.248 0.0843,-0.334 0.2011,-0.602 0.3496,-0.806 0.1488,-0.205 0.3172,-0.352 0.5058,-0.441 0.1891,-0.0905 0.3867,-0.1346 0.5953,-0.1346 z m -2.8273,2.5846 c 0,0.727 0.0941,1.335 0.2832,1.823 0.1887,0.488 0.4312,0.882 0.7285,1.181 0.2981,0.298 0.6356,0.51 1.0121,0.634 0.3774,0.125 0.7535,0.187 1.1313,0.187 0.2277,0 0.4258,-0.018 0.5945,-0.052 0.1688,-0.035 0.3066,-0.078 0.4164,-0.127 v 3.436 l 1.2063,0.135 V 99.0211 h -1.1016 v 0.7625 h -0.0305 c -0.0297,-0.0602 -0.084,-0.1418 -0.1633,-0.2469 -0.0792,-0.1043 -0.1882,-0.2086 -0.3273,-0.3133 -0.1391,-0.1039 -0.3125,-0.1945 -0.5203,-0.2691 -0.2082,-0.075 -0.452,-0.1117 -0.7293,-0.1117 -0.3371,0 -0.657,0.0668 -0.9594,0.2019 -0.3031,0.1344 -0.5679,0.3477 -0.7965,0.6422 -0.2285,0.2942 -0.4086,0.6723 -0.5433,1.1353 -0.1332,0.463 -0.2008,1.023 -0.2008,1.681 z m -3.541,2.884 c -0.4262,0 -0.7684,-0.179 -1.0274,-0.538 -0.2574,-0.359 -0.4062,-0.877 -0.4461,-1.554 h 2.6039 c 0.0098,0.05 0.0176,0.122 0.0223,0.218 0.0051,0.093 0.0086,0.195 0.0086,0.305 0,0.498 -0.0996,0.884 -0.2984,1.158 -0.1985,0.274 -0.486,0.411 -0.8629,0.411 z m 2.2613,-1.613 c 0,-0.31 -0.0098,-0.576 -0.0289,-0.8 -0.0199,-0.225 -0.0398,-0.421 -0.0602,-0.59 h -3.6457 c 0.0399,-0.847 0.2219,-1.47 0.5438,-1.869 0.3223,-0.398 0.7855,-0.5966 1.3906,-0.5966 0.209,0 0.3973,0.0246 0.5656,0.0742 0.1688,0.0504 0.3149,0.1104 0.4399,0.1794 0.1238,0.069 0.2273,0.139 0.3113,0.21 0.0844,0.068 0.1469,0.124 0.1867,0.164 l 0.4461,-0.8519 c -0.0492,-0.0503 -0.1238,-0.1222 -0.2234,-0.2168 -0.0984,-0.0949 -0.2328,-0.1894 -0.4016,-0.2835 -0.1687,-0.095 -0.3765,-0.1774 -0.6242,-0.2469 -0.248,-0.0703 -0.5418,-0.1043 -0.8785,-0.1043 -0.4461,0 -0.85,0.0742 -1.2125,0.2242 -0.3621,0.1492 -0.6703,0.3809 -0.9227,0.6941 -0.2535,0.3141 -0.4488,0.7131 -0.5882,1.1951 -0.1387,0.483 -0.2082,1.063 -0.2082,1.741 0,0.638 0.0722,1.189 0.216,1.651 0.1437,0.464 0.3394,0.844 0.5879,1.144 0.2472,0.298 0.5359,0.52 0.8628,0.663 0.3278,0.146 0.6793,0.218 1.0571,0.218 0.684,0 1.2195,-0.218 1.6066,-0.65 0.3863,-0.433 0.5797,-1.083 0.5797,-1.949 z M 72.3297,99.0211 v 10.3099 h 5.0437 l -0.089,-1.031 h -3.6598 v -3.81 h 3.3774 v -1.031 h -3.3774 v -4.4379 h -1.2949" style="fill:#231f20;fill-opacity:1;fill-rule:nonzero;stroke:none;stroke-width:0.1" id="path16" inkscape:connector-curvature="0"/><path d="m 39.4855,99.852 c 0.034,0.28 0.054,0.571 0.054,0.868 0,0.161 0.0011,0.349 -0.0192,0.562 2.4926,0.036 4.6785,1.839 4.6785,3.912 0,1.055 -0.6851,1.852 -1.0726,2.327 0.0879,0.018 0.1746,0.039 0.2629,0.06 0.3648,-0.318 1.4007,-1.451 1.4007,-2.882 0,-2.487 -2.4761,-4.7959 -5.3043,-4.847 z m -2.5105,8.662 c -0.0465,0.278 -0.1512,0.529 -0.3113,0.744 0.0078,0.253 0.1117,0.496 0.5183,0.296 -0.2195,-0.226 -0.0496,-0.625 -0.0496,-0.625 0,0 0.4496,0.209 0.3563,0.507 0.6676,-0.16 0.1875,-1.06 -0.5137,-0.922 z m -0.5789,-1.276 c -0.0895,0.371 -0.2789,0.753 -0.5211,1.041 -0.2187,0.26 -0.5828,0.569 -1.0727,0.569 -0.2242,0 -0.5988,-0.105 -0.8375,-0.206 -0.0898,0.163 -0.264,0.556 -0.264,0.734 0,0.181 0.307,0.366 0.8933,0.366 1.2899,0 2.0614,-0.585 2.0614,-1.567 0,-0.345 -0.1364,-0.659 -0.2594,-0.937 z m 3.3133,-16.7001 c 0.15,0 0.223,-0.0246 0.3097,-0.0563 0.3719,-1.0152 1.8032,-2.9293 1.8633,-3.0113 l 0.0137,-0.0172 0.0211,0.0051 c 0.3504,0.0563 1.2469,0.1926 1.9976,0.1926 h 0.0168 c 0.0821,0 0.1739,0 0.2332,-0.0574 0.0485,-0.0496 0.0731,-0.1352 0.0731,-0.2567 0,-0.1875 -0.0797,-0.5078 -0.1738,-0.6449 -0.2637,0.2879 -0.6903,0.4168 -1.3715,0.4168 -0.2063,0 -0.4485,-0.0609 -0.5793,-0.0957 l -0.0535,-0.0117 -0.0621,-0.016 0.3945,-0.3961 c 0.6066,-0.6094 1.1332,-1.1352 1.1332,-1.4868 0,-0.2101 -0.2051,-0.4847 -0.3945,-0.6074 -0.0403,0.6426 -0.686,1.5008 -1.3141,1.9813 l -0.0535,0.0402 -0.011,-0.2254 c -0.0085,-0.1531 -0.0218,-0.384 -0.0218,-0.6293 0,-1.2215 -0.1235,-1.407 -0.5453,-1.407 -0.0653,0 -0.1641,0.0183 -0.2258,0.0414 0.2379,0.2945 0.332,0.6836 0.332,1.3668 l -0.0031,0.3152 -0.0035,0.2539 c 0,0.2793 0.0289,0.4875 0.0515,0.6535 l 0.0121,0.0942 -0.0668,0.0094 c -0.1976,0.0277 -0.5636,0.0781 -0.8445,0.0781 -0.6012,0 -1.009,-0.0555 -1.3043,-0.3348 -0.1949,0.1578 -0.3949,0.4305 -0.3949,0.6028 0,0.2558 0.1574,0.2753 0.3644,0.2753 0.1055,0 0.2036,-0.0144 0.3387,-0.0324 0.2582,-0.0379 0.6481,-0.0957 1.4485,-0.0957 h 0.05 l -0.0153,0.0496 c -0.2023,0.5828 -0.7605,1.4317 -1.6551,2.5231 0.0793,0.2918 0.159,0.4828 0.4403,0.4828 z M 31.9902,87.532 31.9734,87.4824 h 0.05 c 0.8008,0 1.1911,0.0578 1.4496,0.0957 0.1356,0.018 0.2321,0.0324 0.3372,0.0324 0.207,0 0.366,-0.0195 0.366,-0.2753 0,-0.1723 -0.2012,-0.445 -0.3949,-0.6028 -0.2954,0.2793 -0.7047,0.3348 -1.3047,0.3348 -0.2809,0 -0.6477,-0.0504 -0.845,-0.0781 l -0.0308,-0.0039 -0.0348,-0.0055 0.0117,-0.0942 c 0.0231,-0.166 0.0516,-0.3742 0.0516,-0.6535 L 31.6262,85.9781 31.623,85.6629 c 0,-0.6832 0.0934,-1.0723 0.3317,-1.3668 -0.0621,-0.0231 -0.1617,-0.0414 -0.2266,-0.0414 -0.4211,0 -0.5441,0.1855 -0.5441,1.407 0,0.2453 -0.0137,0.4762 -0.0223,0.6293 l -0.0113,0.227 -0.0535,-0.0418 c -0.6278,-0.4805 -1.2742,-1.3387 -1.3133,-1.9813 -0.1898,0.1227 -0.3945,0.3973 -0.3945,0.6074 0,0.3516 0.525,0.8774 1.1324,1.4868 l 0.35,0.3507 0.0433,0.0454 -0.1144,0.0277 c -0.1305,0.0348 -0.3731,0.0957 -0.5793,0.0957 -0.6824,0 -1.1078,-0.1289 -1.3719,-0.4168 -0.0941,0.1371 -0.1734,0.4574 -0.1734,0.6449 0,0.1215 0.0234,0.2071 0.0719,0.2567 0.0597,0.0574 0.1523,0.0574 0.2332,0.0574 h 0.0171 c 0.7504,0 1.6489,-0.1363 1.9993,-0.1926 l 0.0203,-0.0051 0.0137,0.0172 c 0.0605,0.082 1.4914,1.9961 1.8632,3.0113 0.0856,0.0317 0.1598,0.0563 0.3086,0.0563 0.2828,0 0.361,-0.191 0.4414,-0.4828 C 32.75,88.9637 32.193,88.1148 31.9902,87.532 Z m -3.8672,17.167 c 0,1.431 1.0368,2.564 1.4012,2.882 0.0879,-0.021 0.1754,-0.042 0.2629,-0.06 -0.3879,-0.475 -1.0723,-1.272 -1.0723,-2.327 0,-2.093 2.229,-3.912 4.7516,-3.912 -0.0156,-0.18 -0.025,-0.368 -0.025,-0.562 0,-0.309 0.0172,-0.597 0.0481,-0.868 -2.8528,0.0168 -5.3665,2.342 -5.3665,4.847 z m 19.1387,-4.411 c 1.2805,-2.0325 2.2821,-1.9985 3.7957,-1.9985 -1.2523,0.964 -2.0804,2.1975 -2.4746,2.8275 l -2.3383,3.757 c -0.2289,1.16 -0.8265,2.246 -1.7207,3.052 0.3004,0.114 0.5504,0.235 0.7012,0.35 -1.527,0 -3.0395,0.778 -3.8719,0.778 -0.5355,0 -0.8797,-0.322 -0.8797,-0.746 0.0344,-0.473 0.5192,-0.954 1.4153,-0.954 0.2043,0 0.4629,0.026 0.7484,0.073 0.4852,-0.679 0.8766,-1.293 0.8766,-2.168 0,-1.645 -1.959,-2.927 -3.936,-2.927 -0.1121,0 -0.2179,0.004 -0.3297,0.013 -0.1796,0.407 -0.775,1.092 -0.775,1.871 0,1.306 0.8493,2.373 0.8493,3.668 0,0.804 -0.391,1.302 -0.5414,1.51 0.2429,0.226 0.5089,0.504 0.5699,0.694 -0.1406,-0.061 -0.307,-0.069 -0.552,-0.069 -0.9476,0 -1.7195,0.248 -2.473,0.248 -0.4293,0 -0.5453,-0.133 -0.5453,-0.26 0,-0.046 0.007,-0.094 0.0191,-0.118 -0.1601,0.064 -0.3101,0.104 -0.4894,0.138 -0.2219,0.042 -0.461,0.064 -0.7161,0.064 -0.9156,0 -1.2402,-0.385 -1.2402,-0.715 0,-0.28 0.2188,-0.79 0.4676,-1.178 0.357,0.18 0.7848,0.302 0.9808,0.302 0.4852,0 0.918,-0.464 1.1465,-1.014 -0.3265,-0.04 -0.3898,-0.055 -0.7199,-0.055 -0.8906,0 -1.4969,0.321 -1.6215,0.321 -0.0121,0 -0.0359,-0.007 -0.0359,-0.026 0,-0.126 0.2515,-0.457 0.7504,-0.64 0.6554,-0.241 1.639,-0.341 1.8027,-0.368 0,-0.029 -0.1668,-0.341 -0.3519,-0.401 -0.0399,-0.013 -0.07,-0.014 -0.1161,-0.005 -0.6855,0.136 -0.8769,0.194 -1.7461,0.526 -0.0273,0.01 -0.0421,-0.007 -0.0421,-0.034 0,-0.346 0.8898,-1.108 1.6875,-1.399 -0.6664,-0.855 -1.4985,-1.728 -1.8903,-3.06 -0.1109,-0.009 -0.2183,-0.013 -0.3304,-0.013 -1.9766,0 -3.936,1.282 -3.936,2.927 0,0.875 0.393,1.489 0.8781,2.168 0.2852,-0.047 0.5442,-0.073 0.7469,-0.073 0.8969,0 1.3817,0.481 1.4172,0.954 0,0.424 -0.3441,0.746 -0.8809,0.746 -0.8324,0 -2.3449,-0.778 -3.873,-0.778 0.1516,-0.115 0.4016,-0.236 0.7012,-0.35 -0.8942,-0.806 -1.4918,-1.892 -1.7203,-3.052 l -2.3371,-3.757 c -0.3938,-0.63 -1.2243,-1.8635 -2.4758,-2.8275 1.5129,0 2.5156,-0.034 3.7961,1.9985 l 1.1984,1.926 c 0.0891,-0.25 0.1984,-0.493 0.327,-0.732 l -2.3844,-3.83 c -0.3973,-0.6352 -1.2184,-1.8582 -2.4762,-2.8278 1.5133,0 2.5164,-0.0347 3.7965,1.9969 l 2.0519,3.2989 c 0.1532,-0.1641 0.3153,-0.3243 0.4856,-0.4782 l -2.8961,-4.6555 c -0.398,-0.6355 -1.2156,-1.8562 -2.475,-2.825 1.5129,0 2.5156,-0.0371 3.7953,1.9965 l 2.8238,4.5387 c 0.186,-0.1176 0.3766,-0.2324 0.5727,-0.3406 l -3.4469,-5.5371 c -0.3972,-0.6375 -1.2152,-1.8543 -2.4746,-2.8254 1.5133,0 2.5164,-0.0352 3.7961,1.9961 l 3.5488,5.7046 c 0.2102,-0.0812 0.4231,-0.1586 0.6399,-0.2281 l -4.0102,-6.4449 c -0.3926,-0.6277 -1.2289,-1.8656 -2.4738,-2.825 1.5121,0 2.5148,-0.0336 3.7953,1.9965 l 4.2734,6.8687 c 0.0434,-0.0074 0.0872,-0.0148 0.1289,-0.0234 0.1165,-0.3719 0.1973,-0.7168 0.1973,-1.0629 0,-2.1578 -1.4101,-4.0652 -3.1023,-5.5359 0.1082,-0.0485 0.2961,-0.0637 0.4711,-0.0637 0.3492,0 0.5746,0.018 0.7332,0.0457 -0.3926,-0.8945 -1.2344,-2.0508 -1.6602,-2.6488 -0.5543,0.1004 -1.3605,0.1785 -1.8891,0.1785 -0.5523,0 -0.6148,-0.3246 -0.6148,-0.6141 0,-0.5039 0.2344,-0.9043 0.5082,-1.1281 0.102,0.2574 0.309,0.6023 1.3297,0.6023 0.0191,0 0.0547,-0.0027 0.1027,-0.0066 -0.2984,-0.3328 -1.2332,-1.0906 -1.2332,-1.702 0,-0.4039 0.4414,-1.0097 1.0242,-1.0097 -0.0347,0.1297 -0.0296,0.25 -0.0296,0.3398 0,0.4953 0.4359,1.0739 0.8043,1.477 -0.011,-0.1196 -0.0051,-0.1074 -0.0051,-0.2477 0,-1.1691 0.1051,-1.7062 0.8437,-1.7062 0.3633,0 0.6133,0.2 0.6996,0.2597 -0.4804,0.4438 -0.5047,0.7922 -0.5047,1.4477 0.0012,0.1703 0.0016,0.3379 0.0043,0.568 0.0012,0.1492 -0.0011,0.3484 -0.0253,0.4921 0.2652,0.036 0.3714,0.036 0.5746,0.036 0,0 1.0504,0.0836 1.3031,-0.4641 0.2851,0.2621 0.6988,0.6324 0.6988,1.0403 0,0.2707 -0.1273,0.5757 -0.6683,0.5757 -0.2047,0 -0.8489,-0.1265 -1.3872,-0.1265 0.1446,0.323 0.7887,1.2699 1.3469,1.9566 0.0852,-0.2656 0.2168,-0.5543 0.5106,-0.7894 0.0394,0.4414 0.2976,1.8386 0.9851,2.6554 0.0801,-0.5515 0.1887,-1.1179 0.1887,-2.3125 0,-2.9047 -0.6961,-5.0496 -2.173,-5.4593 0.1929,-0.3348 0.5988,-0.6368 1.0207,-0.6368 0.5398,0 0.8335,0.6118 1.1339,1.1911 0.1563,-0.427 0.5879,-1.4735 1.0204,-1.4735 0.4324,0 0.8644,1.0465 1.0203,1.4735 0.3004,-0.5793 0.5941,-1.1911 1.1351,-1.1911 0.4211,0 0.8278,0.302 1.0199,0.6368 -1.4761,0.4097 -2.1726,2.5546 -2.1726,5.4593 0,1.1946 0.1078,1.761 0.1879,2.3125 0.6875,-0.8168 0.9469,-2.214 0.9859,-2.6554 0.2934,0.2351 0.4262,0.5238 0.5102,0.7894 0.5578,-0.6867 1.2031,-1.6336 1.3488,-1.9566 -0.5398,0 -1.1844,0.1265 -1.3895,0.1265 -0.5398,0 -0.6671,-0.305 -0.6671,-0.5757 0,-0.4079 0.4132,-0.7782 0.6988,-1.0403 0.2515,0.5477 1.3031,0.4641 1.3031,0.4641 0.2035,0 0.3106,0 0.575,-0.036 -0.0242,-0.1437 -0.0262,-0.3429 -0.025,-0.4921 0.0027,-0.2301 0.0031,-0.3977 0.0035,-0.568 0,-0.6555 -0.0238,-1.0039 -0.5039,-1.4477 0.086,-0.0597 0.336,-0.2597 0.6985,-0.2597 0.739,0 0.8453,0.5371 0.8453,1.7062 0,0.1403 0.0043,0.1281 -0.0055,0.2477 0.3676,-0.4031 0.8047,-0.9817 0.8047,-1.477 0,-0.0898 0.0047,-0.2101 -0.0309,-0.3398 0.5825,0 1.0242,0.6058 1.0242,1.0097 0,0.6114 -0.9343,1.3692 -1.2332,1.702 0.0493,0.0039 0.0832,0.0066 0.1028,0.0066 1.0215,0 1.2269,-0.3449 1.3293,-0.6023 0.273,0.2238 0.5074,0.6242 0.5074,1.1281 0,0.2895 -0.0613,0.6141 -0.6145,0.6141 -0.5277,0 -1.3332,-0.0781 -1.8878,-0.1785 -0.4262,0.598 -1.2676,1.7543 -1.6602,2.6488 0.1574,-0.0277 0.3848,-0.0457 0.7328,-0.0457 0.1754,0 0.3637,0.0152 0.4719,0.0637 -1.6926,1.4707 -3.1043,3.3781 -3.1043,5.5359 0,0.3461 0.082,0.691 0.1973,1.0629 0.0425,0.0086 0.0867,0.016 0.1293,0.0234 l 4.2738,-6.8687 c 1.2797,-2.0301 2.2836,-1.9965 3.7953,-1.9965 -1.2453,0.9594 -2.082,2.1973 -2.4727,2.825 l -4.0109,6.4449 c 0.2176,0.0695 0.4305,0.1469 0.6402,0.2281 l 3.5485,-5.7046 c 1.2793,-2.0313 2.282,-1.9961 3.7953,-1.9961 -1.2594,0.9711 -2.0774,2.1879 -2.4746,2.8254 l -3.4461,5.5371 c 0.1965,0.1082 0.3875,0.223 0.5719,0.3406 l 2.8238,-4.5387 c 1.2812,-2.0336 2.2824,-1.9965 3.7945,-1.9965 -1.2578,0.9688 -2.0754,2.1895 -2.4742,2.825 l -2.8949,4.6555 c 0.1699,0.1539 0.332,0.3141 0.4843,0.4782 l 2.0532,-3.2989 c 1.2793,-2.0316 2.2824,-1.9969 3.7961,-1.9969 -1.259,0.9696 -2.0785,2.1926 -2.4766,2.8278 l -2.3836,3.83 c 0.1281,0.239 0.2371,0.482 0.3266,0.732 l 1.198,-1.926" style="fill:#231f20;fill-opacity:1;fill-rule:nonzero;stroke:none;stroke-width:0.1" id="path18" inkscape:connector-curvature="0"/><path d="M 61.1516,58.8461 H 63.027 V 33.734 H 58.65 v 25.1121 h 2.5016" style="fill:#f2cf04;fill-opacity:1;fill-rule:nonzero;stroke:none;stroke-width:0.1" id="path20" inkscape:connector-curvature="0"/><path d="M 61.1516,84.0809 H 63.027 V 58.8461 H 58.65 v 25.2348 h 2.5016" style="fill:#ed1c24;fill-opacity:1;fill-rule:nonzero;stroke:none;stroke-width:0.1" id="path22" inkscape:connector-curvature="0"/><path d="M 63.027,109.065 V 83.9555 H 58.65 v 25.1095 h 4.377" style="fill:#231f20;fill-opacity:1;fill-rule:nonzero;stroke:none;stroke-width:0.1" id="path24" inkscape:connector-curvature="0"/></g><g inkscape:groupmode="layer" id="layer1" inkscape:label="Schutzzone" style="display:none"><g id="g4779"><use height="100%" width="100%" transform="translate(-29.2019)" id="use4814" xlink:href="#path18" y="0" x="0"/><use height="100%" width="100%" transform="translate(38.074509,26.804)" id="use4816" xlink:href="#path18" y="0" x="0"/><use height="100%" width="100%" transform="translate(135.3925,7.9035002)" id="use4818" xlink:href="#path18" y="0" x="0"/><use height="100%" width="100%" transform="translate(24.38205,-76.533002)" id="use4820" xlink:href="#path18" y="0" x="0"/></g></g></g></svg>