<?xml version="1.0" encoding="UTF-8" standalone="no"?>
<svg
   version="1.1"
   width="665.00574"
   height="159.22302"
   id="svg2"
   inkscape:version="1.4.2 (ebf0e940d0, 2025-05-08)"
   sodipodi:docname="dramsys.svg"
   viewBox="0 0 665.00573 159.22301"
   xmlns:inkscape="http://www.inkscape.org/namespaces/inkscape"
   xmlns:sodipodi="http://sodipodi.sourceforge.net/DTD/sodipodi-0.dtd"
   xmlns="http://www.w3.org/2000/svg"
   xmlns:svg="http://www.w3.org/2000/svg"
   xmlns:rdf="http://www.w3.org/1999/02/22-rdf-syntax-ns#"
   xmlns:cc="http://creativecommons.org/ns#"
   xmlns:dc="http://purl.org/dc/elements/1.1/">
  <sodipodi:namedview
     pagecolor="#ffffff"
     bordercolor="#666666"
     borderopacity="1"
     objecttolerance="10"
     gridtolerance="10"
     guidetolerance="10"
     inkscape:pageopacity="0"
     inkscape:pageshadow="2"
     inkscape:window-width="2194"
     inkscape:window-height="1206"
     id="namedview37"
     showgrid="false"
     inkscape:zoom="0.65018475"
     inkscape:cx="372.2019"
     inkscape:cy="372.97091"
     inkscape:window-x="0"
     inkscape:window-y="0"
     inkscape:window-maximized="1"
     inkscape:current-layer="text4445"
     fit-margin-top="0"
     fit-margin-left="0"
     fit-margin-right="0"
     fit-margin-bottom="0"
     showguides="true"
     inkscape:guide-bbox="true"
     inkscape:document-units="px"
     inkscape:document-rotation="0"
     inkscape:showpageshadow="2"
     inkscape:pagecheckerboard="0"
     inkscape:deskcolor="#d1d1d1">
    <sodipodi:guide
       position="1493.338,-447.75468"
       orientation="1,0"
       id="guide4415"
       inkscape:locked="false" />
    <sodipodi:guide
       position="343.99998,-134.77695"
       orientation="0,1"
       id="guide4435"
       inkscape:locked="false" />
    <sodipodi:guide
       position="189.79618,28.065529"
       orientation="0,1"
       id="guide4439"
       inkscape:locked="false" />
    <sodipodi:guide
       position="176.60215,113.22688"
       orientation="0,1"
       id="guide4441"
       inkscape:locked="false" />
    <sodipodi:guide
       position="144.69774,159.23734"
       orientation="0,1"
       id="guide4443"
       inkscape:locked="false" />
    <sodipodi:guide
       position="663.58115,46.057339"
       orientation="1,0"
       id="guide4451"
       inkscape:locked="false" />
  </sodipodi:namedview>
  <defs
     id="defs4" />
  <metadata
     id="metadata7">
    <rdf:RDF>
      <cc:Work
         rdf:about="">
        <dc:format>image/svg+xml</dc:format>
        <dc:type
           rdf:resource="http://purl.org/dc/dcmitype/StillImage" />
      </cc:Work>
    </rdf:RDF>
  </metadata>
  <g
     transform="translate(-39.832809,-234.78108)"
     id="g4392">
    <rect
       style="fill:#000000;fill-opacity:1;fill-rule:evenodd;stroke:none"
       id="rect4395"
       y="234.78108"
       x="39.832809"
       height="40"
       width="40" />
    <rect
       style="fill:#000000;fill-opacity:1;fill-rule:evenodd;stroke:none"
       id="rect4397"
       y="234.78108"
       x="85.832809"
       height="40"
       width="40" />
    <rect
       style="fill:#2d5016;fill-opacity:1;fill-rule:evenodd;stroke:none"
       id="rect4399"
       y="234.78108"
       x="131.83281"
       height="40"
       width="40" />
    <rect
       style="fill:#000000;fill-opacity:1;fill-rule:evenodd;stroke:none"
       id="rect4401"
       y="280.78107"
       x="39.832809"
       height="40"
       width="40" />
    <rect
       style="fill:#2d5016;fill-opacity:1;fill-rule:evenodd;stroke:none"
       id="rect4403"
       y="280.78107"
       x="85.832809"
       height="40"
       width="40" />
    <rect
       style="fill:#338000;fill-opacity:1;fill-rule:evenodd;stroke:none"
       id="rect4405"
       y="280.78107"
       x="131.83281"
       height="40"
       width="40" />
    <rect
       style="fill:#2d5016;fill-opacity:1;fill-rule:evenodd;stroke:none"
       id="rect4407"
       y="326.78107"
       x="39.832809"
       height="40"
       width="40" />
    <rect
       style="fill:#338000;fill-opacity:1;fill-rule:evenodd;stroke:none"
       id="rect4409"
       y="326.78107"
       x="85.832809"
       height="40"
       width="40" />
    <rect
       style="fill:#71c837;fill-opacity:1;fill-rule:evenodd;stroke:none"
       id="rect4411"
       y="326.78107"
       x="131.83281"
       height="40"
       width="40" />
  </g>
  <g
     style="font-style:normal;font-variant:normal;font-weight:normal;font-stretch:normal;line-height:0%;font-family:sans-serif;-inkscape-font-specification:sans-serif;letter-spacing:0px;word-spacing:0px;fill:#000000;fill-opacity:1;stroke:none;stroke-width:1px;stroke-linecap:butt;stroke-linejoin:miter;stroke-opacity:1"
     id="text4413"
     aria-label="DRAMSys">
    <path
       id="path36"
       style="font-style:normal;font-variant:normal;font-weight:500;font-stretch:normal;font-size:110.667px;line-height:10;font-family:Futura;-inkscape-font-specification:'Futura Medium'"
       d="M 173.38055,130.58362 V 47.151075 h 17.50786 q 12.59054,0 19.88548,2.485685 7.83531,2.431648 14.21163,8.267603 12.91475,11.779983 12.91475,30.962984 0,19.237033 -13.45511,31.125093 -6.75458,5.94403 -14.1576,8.2676 -6.91669,2.32358 -19.61529,2.32358 z m 12.59053,-11.83402 h 5.67385 q 8.48375,0 14.10355,-1.78321 5.61981,-1.89128 10.15889,-5.99807 9.2943,-8.48374 9.2943,-22.100973 0,-13.725302 -9.18623,-22.263088 -8.2676,-7.619164 -24.37051,-7.619164 h -5.67385 z" />
    <path
       id="path38"
       style="font-style:normal;font-variant:normal;font-weight:500;font-stretch:normal;font-size:110.667px;line-height:10;font-family:Futura;-inkscape-font-specification:'Futura Medium'"
       d="m 282.0482,95.027522 25.8295,35.556098 H 292.47726 L 268.64711,96.432474 h -2.26953 V 130.58362 H 253.78704 V 47.151075 h 14.752 q 16.53521,0 23.88419,6.214212 8.10549,6.916687 8.10549,18.264378 0,8.862005 -5.07944,15.238327 -5.07944,6.376321 -13.40108,8.15953 z M 266.37758,85.46304 h 3.99871 q 17.88612,0 17.88612,-13.671265 0,-12.80668 -17.39979,-12.80668 h -4.48504 z" />
    <path
       id="path40"
       style="font-style:normal;font-variant:normal;font-weight:500;font-stretch:normal;font-size:110.667px;line-height:10;font-family:Futura;-inkscape-font-specification:'Futura Medium'"
       d="m 369.37138,110.31989 h -35.71821 l -9.2943,20.26373 h -13.56319 l 41.28398,-88.674097 39.82499,88.674097 H 378.12531 Z M 364.2379,98.485865 351.86351,70.116639 338.89472,98.485865 Z" />
    <path
       id="path42"
       style="font-style:normal;font-variant:normal;font-weight:500;font-stretch:normal;font-size:110.667px;line-height:10;font-family:Futura;-inkscape-font-specification:'Futura Medium'"
       d="m 399.36171,130.58362 17.5619,-89.700793 28.63941,64.843943 29.66611,-64.843943 15.77869,89.700793 h -12.91475 l -8.05146,-50.362133 -24.69473,54.198733 -23.99226,-54.252769 -8.97008,50.416169 z" />
    <path
       id="path44"
       style="font-style:normal;font-variant:normal;font-weight:500;font-stretch:normal;font-size:110.667px;line-height:10;font-family:Futura;-inkscape-font-specification:'Futura Medium'"
       d="M 555.79771,59.579498 545.58479,65.6316 q -2.86394,-4.971369 -5.4577,-6.484395 -2.70183,-1.729172 -6.97072,-1.729172 -5.24155,0 -8.6999,2.972014 -3.45834,2.917978 -3.45834,7.348981 0,6.106138 9.07815,9.834665 l 8.32164,3.404307 q 10.15889,4.106783 14.86007,10.050812 4.70119,5.889991 4.70119,14.481818 0,11.5098 -7.6732,19.02089 -7.72724,7.56512 -19.183,7.56512 -10.86136,0 -17.94016,-6.43035 -6.97072,-6.43036 -8.6999,-18.10227 l 12.75265,-2.80991 q 0.86458,7.34898 3.02605,10.15889 3.89063,5.40366 11.34769,5.40366 5.88999,0 9.78063,-3.94467 3.89063,-3.94468 3.89063,-9.99678 0,-2.43165 -0.70247,-4.431 -0.64844,-2.053393 -2.10743,-3.728528 -1.40495,-1.729172 -3.67449,-3.18816 -2.26954,-1.513026 -5.40366,-2.863941 l -8.05146,-3.350271 q -17.12961,-7.240907 -17.12961,-21.182355 0,-9.402372 7.18687,-15.724657 7.18687,-6.376321 17.88612,-6.376321 14.42778,0 22.53327,14.049521 z" />
    <path
       id="path46"
       style="font-style:normal;font-variant:normal;font-weight:500;font-stretch:normal;font-size:110.667px;line-height:10;font-family:Futura;-inkscape-font-specification:'Futura Medium'"
       d="M 587.51722,120.80299 563.84918,77.951949 h 14.10356 l 16.10291,30.260511 15.02218,-30.260511 h 13.7253 L 580.87071,159.22303 H 566.9833 Z" />
    <path
       id="path48"
       style="font-style:normal;font-variant:normal;font-weight:500;font-stretch:normal;font-size:110.667px;line-height:10;font-family:Futura;-inkscape-font-specification:'Futura Medium'"
       d="m 661.60142,86.922028 -10.05081,5.349626 q -2.37761,-4.863296 -5.88999,-4.863296 -1.67514,0 -2.86395,1.134769 -1.1888,1.080732 -1.1888,2.809904 0,3.026051 7.02476,5.998065 9.67255,4.160824 13.02282,7.673204 3.35028,3.51238 3.35028,9.45641 0,7.61916 -5.61981,12.75264 -5.4577,4.86329 -13.18494,4.86329 -13.23897,0 -18.75071,-12.91475 l 10.37504,-4.80926 q 2.16146,3.78257 3.29623,4.80926 2.2155,2.05339 5.29559,2.05339 6.16017,0 6.16017,-5.61981 0,-3.24219 -4.75522,-6.0521 -1.83725,-0.91862 -3.67449,-1.78321 -1.83725,-0.86458 -3.72853,-1.7832 -5.29559,-2.59376 -7.45705,-5.18752 -2.75587,-3.296234 -2.75587,-8.48375 0,-6.86265 4.70119,-11.34769 4.80926,-4.485039 11.67191,-4.485039 10.10485,0 15.02218,10.429067 z" />
  </g>
  <g
     style="font-style:normal;font-variant:normal;font-weight:normal;font-stretch:normal;line-height:0%;font-family:sans-serif;-inkscape-font-specification:sans-serif;letter-spacing:0px;word-spacing:0px;fill:#000000;fill-opacity:1;stroke:none;stroke-width:1px;stroke-linecap:butt;stroke-linejoin:miter;stroke-opacity:1"
     id="text4445"
     aria-label="4.0" />
</svg>
